<mxfile host="Electron" modified="2023-09-07T18:55:56.590Z" agent="Mozilla/5.0 (Windows NT 10.0; Win64; x64) AppleWebKit/537.36 (KHTML, like Gecko) draw.io/21.6.8 Chrome/114.0.5735.289 Electron/25.5.0 Safari/537.36" etag="J6Q8lRMR9GrFi6qwVO0r" version="21.6.8" type="device">
  <diagram name="Page-1" id="BMzZ3T9laxPBZ3N4-hRJ">
    <mxGraphModel dx="1434" dy="836" grid="1" gridSize="10" guides="1" tooltips="1" connect="1" arrows="1" fold="1" page="1" pageScale="1" pageWidth="1600" pageHeight="900" math="0" shadow="0">
      <root>
        <mxCell id="0" />
        <mxCell id="1" parent="0" />
        <mxCell id="UsJDECd9wd7Y0WEeQo-u-4" style="edgeStyle=orthogonalEdgeStyle;rounded=0;orthogonalLoop=1;jettySize=auto;html=1;dashed=1;endArrow=none;endFill=0;" edge="1" parent="1" source="UsJDECd9wd7Y0WEeQo-u-1">
          <mxGeometry relative="1" as="geometry">
            <mxPoint x="135" y="900" as="targetPoint" />
          </mxGeometry>
        </mxCell>
        <mxCell id="UsJDECd9wd7Y0WEeQo-u-1" value="User" style="shape=umlActor;verticalLabelPosition=bottom;verticalAlign=top;html=1;outlineConnect=0;" vertex="1" parent="1">
          <mxGeometry x="120" y="80" width="30" height="60" as="geometry" />
        </mxCell>
        <mxCell id="UsJDECd9wd7Y0WEeQo-u-5" style="edgeStyle=orthogonalEdgeStyle;rounded=0;orthogonalLoop=1;jettySize=auto;html=1;dashed=1;endArrow=none;endFill=0;" edge="1" parent="1" source="UsJDECd9wd7Y0WEeQo-u-16">
          <mxGeometry relative="1" as="geometry">
            <mxPoint x="340" y="900" as="targetPoint" />
          </mxGeometry>
        </mxCell>
        <mxCell id="UsJDECd9wd7Y0WEeQo-u-2" value="Rewards System" style="rounded=0;whiteSpace=wrap;html=1;" vertex="1" parent="1">
          <mxGeometry x="280" y="80" width="120" height="40" as="geometry" />
        </mxCell>
        <mxCell id="UsJDECd9wd7Y0WEeQo-u-6" style="edgeStyle=orthogonalEdgeStyle;rounded=0;orthogonalLoop=1;jettySize=auto;html=1;dashed=1;endArrow=none;endFill=0;" edge="1" parent="1" source="UsJDECd9wd7Y0WEeQo-u-3">
          <mxGeometry relative="1" as="geometry">
            <mxPoint x="580" y="900" as="targetPoint" />
          </mxGeometry>
        </mxCell>
        <mxCell id="UsJDECd9wd7Y0WEeQo-u-3" value="Database" style="rounded=0;whiteSpace=wrap;html=1;" vertex="1" parent="1">
          <mxGeometry x="520" y="80" width="120" height="40" as="geometry" />
        </mxCell>
        <mxCell id="UsJDECd9wd7Y0WEeQo-u-8" value="" style="endArrow=classic;html=1;rounded=0;" edge="1" parent="1">
          <mxGeometry width="50" height="50" relative="1" as="geometry">
            <mxPoint x="135" y="200" as="sourcePoint" />
            <mxPoint x="340" y="200" as="targetPoint" />
          </mxGeometry>
        </mxCell>
        <mxCell id="UsJDECd9wd7Y0WEeQo-u-9" value="View Rewards" style="text;html=1;strokeColor=none;fillColor=none;align=center;verticalAlign=middle;whiteSpace=wrap;rounded=0;" vertex="1" parent="1">
          <mxGeometry x="190" y="170" width="90" height="30" as="geometry" />
        </mxCell>
        <mxCell id="UsJDECd9wd7Y0WEeQo-u-10" value="" style="endArrow=classic;html=1;rounded=0;" edge="1" parent="1">
          <mxGeometry width="50" height="50" relative="1" as="geometry">
            <mxPoint x="340" y="223" as="sourcePoint" />
            <mxPoint x="580" y="223" as="targetPoint" />
          </mxGeometry>
        </mxCell>
        <mxCell id="UsJDECd9wd7Y0WEeQo-u-11" value="Fetch User Points &amp;amp; Available Rewards" style="text;html=1;strokeColor=none;fillColor=none;align=center;verticalAlign=middle;whiteSpace=wrap;rounded=0;" vertex="1" parent="1">
          <mxGeometry x="340" y="191" width="230" height="30" as="geometry" />
        </mxCell>
        <mxCell id="UsJDECd9wd7Y0WEeQo-u-12" value="" style="endArrow=none;html=1;rounded=0;endFill=0;startArrow=classic;startFill=1;dashed=1;" edge="1" parent="1">
          <mxGeometry width="50" height="50" relative="1" as="geometry">
            <mxPoint x="340" y="265" as="sourcePoint" />
            <mxPoint x="580" y="265" as="targetPoint" />
          </mxGeometry>
        </mxCell>
        <mxCell id="UsJDECd9wd7Y0WEeQo-u-14" value="Display Points &amp;amp; Rewards" style="text;html=1;strokeColor=none;fillColor=none;align=center;verticalAlign=middle;whiteSpace=wrap;rounded=0;" vertex="1" parent="1">
          <mxGeometry x="190" y="260" width="90" height="30" as="geometry" />
        </mxCell>
        <mxCell id="UsJDECd9wd7Y0WEeQo-u-15" value="" style="endArrow=none;html=1;rounded=0;endFill=0;startArrow=classic;startFill=1;" edge="1" parent="1">
          <mxGeometry width="50" height="50" relative="1" as="geometry">
            <mxPoint x="135" y="290" as="sourcePoint" />
            <mxPoint x="340" y="290" as="targetPoint" />
          </mxGeometry>
        </mxCell>
        <mxCell id="UsJDECd9wd7Y0WEeQo-u-17" value="" style="edgeStyle=orthogonalEdgeStyle;rounded=0;orthogonalLoop=1;jettySize=auto;html=1;dashed=1;endArrow=none;endFill=0;" edge="1" parent="1" source="UsJDECd9wd7Y0WEeQo-u-2" target="UsJDECd9wd7Y0WEeQo-u-16">
          <mxGeometry relative="1" as="geometry">
            <mxPoint x="340" y="920" as="targetPoint" />
            <mxPoint x="340" y="120" as="sourcePoint" />
          </mxGeometry>
        </mxCell>
        <mxCell id="UsJDECd9wd7Y0WEeQo-u-16" value="" style="rounded=0;whiteSpace=wrap;html=1;" vertex="1" parent="1">
          <mxGeometry x="330" y="330" width="20" height="60" as="geometry" />
        </mxCell>
        <mxCell id="UsJDECd9wd7Y0WEeQo-u-18" style="edgeStyle=orthogonalEdgeStyle;rounded=0;orthogonalLoop=1;jettySize=auto;html=1;exitX=1;exitY=0.25;exitDx=0;exitDy=0;entryX=1;entryY=0.75;entryDx=0;entryDy=0;" edge="1" parent="1" source="UsJDECd9wd7Y0WEeQo-u-16" target="UsJDECd9wd7Y0WEeQo-u-16">
          <mxGeometry relative="1" as="geometry">
            <Array as="points">
              <mxPoint x="380" y="345" />
              <mxPoint x="380" y="375" />
            </Array>
          </mxGeometry>
        </mxCell>
        <mxCell id="UsJDECd9wd7Y0WEeQo-u-19" value="calculate Earned Points" style="text;html=1;strokeColor=none;fillColor=none;align=center;verticalAlign=middle;whiteSpace=wrap;rounded=0;" vertex="1" parent="1">
          <mxGeometry x="390" y="345" width="90" height="30" as="geometry" />
        </mxCell>
        <mxCell id="UsJDECd9wd7Y0WEeQo-u-20" value="Add Earned Points" style="text;html=1;strokeColor=none;fillColor=none;align=center;verticalAlign=middle;whiteSpace=wrap;rounded=0;" vertex="1" parent="1">
          <mxGeometry x="400" y="409" width="120" height="30" as="geometry" />
        </mxCell>
        <mxCell id="UsJDECd9wd7Y0WEeQo-u-21" value="" style="endArrow=classic;html=1;rounded=0;" edge="1" parent="1">
          <mxGeometry width="50" height="50" relative="1" as="geometry">
            <mxPoint x="340" y="441" as="sourcePoint" />
            <mxPoint x="580" y="441" as="targetPoint" />
          </mxGeometry>
        </mxCell>
        <mxCell id="UsJDECd9wd7Y0WEeQo-u-22" value="" style="endArrow=none;html=1;rounded=0;endFill=0;startArrow=classic;startFill=1;dashed=1;" edge="1" parent="1">
          <mxGeometry width="50" height="50" relative="1" as="geometry">
            <mxPoint x="340" y="470" as="sourcePoint" />
            <mxPoint x="580" y="470" as="targetPoint" />
          </mxGeometry>
        </mxCell>
        <mxCell id="UsJDECd9wd7Y0WEeQo-u-23" value="" style="endArrow=none;html=1;rounded=0;endFill=0;startArrow=classic;startFill=1;" edge="1" parent="1">
          <mxGeometry width="50" height="50" relative="1" as="geometry">
            <mxPoint x="135" y="490" as="sourcePoint" />
            <mxPoint x="340" y="490" as="targetPoint" />
          </mxGeometry>
        </mxCell>
        <mxCell id="UsJDECd9wd7Y0WEeQo-u-24" value="Notify of Earned Points" style="text;html=1;strokeColor=none;fillColor=none;align=center;verticalAlign=middle;whiteSpace=wrap;rounded=0;" vertex="1" parent="1">
          <mxGeometry x="170" y="460" width="130" height="30" as="geometry" />
        </mxCell>
        <mxCell id="UsJDECd9wd7Y0WEeQo-u-25" value="Redeem Reward" style="text;html=1;strokeColor=none;fillColor=none;align=center;verticalAlign=middle;whiteSpace=wrap;rounded=0;" vertex="1" parent="1">
          <mxGeometry x="180" y="530" width="100" height="30" as="geometry" />
        </mxCell>
        <mxCell id="UsJDECd9wd7Y0WEeQo-u-26" value="" style="endArrow=classic;html=1;rounded=0;" edge="1" parent="1">
          <mxGeometry width="50" height="50" relative="1" as="geometry">
            <mxPoint x="135" y="560" as="sourcePoint" />
            <mxPoint x="340" y="560" as="targetPoint" />
          </mxGeometry>
        </mxCell>
        <mxCell id="UsJDECd9wd7Y0WEeQo-u-27" value="" style="endArrow=classic;html=1;rounded=0;" edge="1" parent="1">
          <mxGeometry width="50" height="50" relative="1" as="geometry">
            <mxPoint x="340" y="624" as="sourcePoint" />
            <mxPoint x="580" y="624" as="targetPoint" />
          </mxGeometry>
        </mxCell>
        <mxCell id="UsJDECd9wd7Y0WEeQo-u-28" value="Deduct Points &amp;amp; Log Redemption" style="text;html=1;strokeColor=none;fillColor=none;align=center;verticalAlign=middle;whiteSpace=wrap;rounded=0;" vertex="1" parent="1">
          <mxGeometry x="400" y="592" width="120" height="30" as="geometry" />
        </mxCell>
        <mxCell id="UsJDECd9wd7Y0WEeQo-u-29" value="" style="endArrow=none;html=1;rounded=0;endFill=0;startArrow=classic;startFill=1;dashed=1;" edge="1" parent="1">
          <mxGeometry width="50" height="50" relative="1" as="geometry">
            <mxPoint x="340" y="682" as="sourcePoint" />
            <mxPoint x="580" y="682" as="targetPoint" />
          </mxGeometry>
        </mxCell>
        <mxCell id="UsJDECd9wd7Y0WEeQo-u-30" value="Notify of Successful Redemption" style="text;html=1;strokeColor=none;fillColor=none;align=center;verticalAlign=middle;whiteSpace=wrap;rounded=0;" vertex="1" parent="1">
          <mxGeometry x="170" y="682" width="130" height="30" as="geometry" />
        </mxCell>
        <mxCell id="UsJDECd9wd7Y0WEeQo-u-31" value="" style="endArrow=none;html=1;rounded=0;endFill=0;startArrow=classic;startFill=1;" edge="1" parent="1">
          <mxGeometry width="50" height="50" relative="1" as="geometry">
            <mxPoint x="135" y="712" as="sourcePoint" />
            <mxPoint x="340" y="712" as="targetPoint" />
          </mxGeometry>
        </mxCell>
        <mxCell id="UsJDECd9wd7Y0WEeQo-u-32" value="" style="endArrow=none;html=1;rounded=0;" edge="1" parent="1">
          <mxGeometry width="50" height="50" relative="1" as="geometry">
            <mxPoint x="135" y="777" as="sourcePoint" />
            <mxPoint x="580" y="777" as="targetPoint" />
          </mxGeometry>
        </mxCell>
        <mxCell id="UsJDECd9wd7Y0WEeQo-u-33" value="[Insufficient Points]" style="text;html=1;strokeColor=none;fillColor=none;align=center;verticalAlign=middle;whiteSpace=wrap;rounded=0;fontSize=10;" vertex="1" parent="1">
          <mxGeometry x="140" y="780" width="90" height="20" as="geometry" />
        </mxCell>
        <mxCell id="UsJDECd9wd7Y0WEeQo-u-34" value="Notify of Insufficent Points" style="text;html=1;strokeColor=none;fillColor=none;align=center;verticalAlign=middle;whiteSpace=wrap;rounded=0;" vertex="1" parent="1">
          <mxGeometry x="170" y="810" width="130" height="30" as="geometry" />
        </mxCell>
        <mxCell id="UsJDECd9wd7Y0WEeQo-u-35" value="" style="endArrow=none;html=1;rounded=0;endFill=0;startArrow=classic;startFill=1;" edge="1" parent="1">
          <mxGeometry width="50" height="50" relative="1" as="geometry">
            <mxPoint x="135" y="840" as="sourcePoint" />
            <mxPoint x="340" y="840" as="targetPoint" />
          </mxGeometry>
        </mxCell>
        <mxCell id="UsJDECd9wd7Y0WEeQo-u-36" value="Alt" style="shape=umlFrame;whiteSpace=wrap;html=1;pointerEvents=0;recursiveResize=0;container=1;collapsible=0;width=160;" vertex="1" parent="1">
          <mxGeometry x="130" y="580" width="470" height="280" as="geometry" />
        </mxCell>
        <mxCell id="UsJDECd9wd7Y0WEeQo-u-37" value="[Sufficient Points]" style="text;html=1;strokeColor=none;fillColor=none;align=center;verticalAlign=middle;whiteSpace=wrap;rounded=0;fontSize=10;" vertex="1" parent="UsJDECd9wd7Y0WEeQo-u-36">
          <mxGeometry x="10" y="30" width="90" height="20" as="geometry" />
        </mxCell>
        <mxCell id="UsJDECd9wd7Y0WEeQo-u-38" value="" style="endArrow=none;html=1;rounded=0;" edge="1" parent="1">
          <mxGeometry width="50" height="50" relative="1" as="geometry">
            <mxPoint x="130" y="900" as="sourcePoint" />
            <mxPoint x="580" y="900" as="targetPoint" />
          </mxGeometry>
        </mxCell>
      </root>
    </mxGraphModel>
  </diagram>
</mxfile>
